name Walk2.mot
datacolumns 19
datarows 30
range 0.91500000 1.06000000
endheader

                time	   L_ground_force_vx	   L_ground_force_vy	   L_ground_force_vz	   L_ground_force_px	   L_ground_force_py	   L_ground_force_pz	   R_ground_force_vx	   R_ground_force_vy	   R_ground_force_vz	   R_ground_force_px	   R_ground_force_py	   R_ground_force_pz	   L_ground_torque_x	   L_ground_torque_y	   L_ground_torque_z	   R_ground_torque_x	   R_ground_torque_y	   R_ground_torque_z	
          0.91500000	        -15.43598910	        147.12050601	        -11.78220128	         -0.12651207	          0.00000000	         -0.00680159	          0.00000001	          0.00000010	          0.00000001	          0.00000000	          0.00000000	          0.00000000	          0.00000000	          0.32766183	          0.00000000	          0.00000000	         -0.00000000	          0.00000000	
          0.92000000	        -21.13799160	        195.33161814	        -15.25561199	         -0.15763873	          0.00000000	         -0.00882155	          0.00000001	          0.00000023	          0.00000003	          0.00000000	          0.00000000	          0.00000000	          0.00000000	          0.44836258	          0.00000000	          0.00000000	         -0.00000000	          0.00000000	
          0.92500000	        -27.43994932	        246.50727640	        -18.79177877	         -0.18731017	          0.00000000	         -0.01088916	          0.00000000	          0.00000041	          0.00000004	          0.00000000	          0.00000000	          0.00000000	          0.00000000	          0.58180449	          0.00000000	          0.00000000	         -0.00000000	          0.00000000	
          0.93000000	        -34.04140762	        296.96903322	        -22.00727496	         -0.21354553	          0.00000000	         -0.01286469	         -0.00000000	          0.00000063	          0.00000006	          0.00000000	          0.00000000	          0.00000000	          0.00000000	          0.72144053	          0.00000000	          0.00000000	         -0.00000000	          0.00000000	
          0.93500000	        -40.69857277	        343.49969811	        -24.43548869	         -0.23532038	          0.00000000	         -0.01467590	         -0.00000002	          0.00000090	          0.00000008	          0.00000000	          0.00000000	          0.00000000	          0.00000000	          0.86064356	          0.00000000	          0.00000000	         -0.00000000	          0.00000000	
          0.94000000	        -47.24356337	        384.04280577	        -25.66796040	         -0.25231755	          0.00000000	         -0.01630615	         -0.00000003	          0.00000121	          0.00000010	          0.00000000	          0.00000000	          0.00000000	          0.00000000	          0.99295576	          0.00000000	          0.00000000	         -0.00000000	          0.00000000	
          0.94500000	        -53.54562532	        417.63882871	        -25.47757436	         -0.26469435	          0.00000000	         -0.01776949	         -0.00000006	          0.00000154	          0.00000013	          0.00000000	          0.00000000	          0.00000000	          0.00000000	          1.11107844	          0.00000000	          0.00000000	          0.00000000	          0.00000000	
          0.95000000	        -59.55029341	        444.52178167	        -23.84183141	         -0.27289674	          0.00000000	         -0.01909556	         -0.00000009	          0.00000187	          0.00000015	          0.00000000	          0.00000000	          0.00000000	          0.00000000	          1.20842094	          0.00000000	          0.00000000	          0.00000000	          0.00000000	
          0.95500000	        -65.34455006	        465.98017844	        -20.89901385	         -0.27751847	          0.00000000	         -0.02031791	         -0.00000012	          0.00000215	          0.00000016	          0.00000000	          0.00000000	          0.00000000	          0.00000000	          1.28030468	          0.00000000	          0.00000000	          0.00000001	          0.00000000	
          0.96000000	        -71.14599034	        483.91059348	        -16.89192249	         -0.27920564	          0.00000000	         -0.02146533	         -0.00000016	          0.00000233	          0.00000017	          0.00000000	          0.00000000	          0.00000000	          0.00000000	          1.32441430	          0.00000000	          0.00000000	          0.00000001	          0.00000000	
          0.96500000	        -77.18752647	        500.30106513	        -12.12089850	         -0.27859779	          0.00000000	         -0.02255493	         -0.00000020	          0.00000231	          0.00000015	          0.00000000	          0.00000000	          0.00000000	          0.00000000	          1.34081424	          0.00000000	          0.00000000	          0.00000002	          0.00000000	
          0.97000000	        -83.57192670	        516.81136397	         -6.90671414	         -0.27629753	          0.00000000	         -0.02358943	         -0.00000024	          0.00000201	          0.00000011	          0.00000000	          0.00000000	          0.00000000	          0.00000000	          1.33229427	          0.00000000	          0.00000000	          0.00000003	          0.00000000	
          0.97500000	        -90.18183770	        534.52357330	         -1.55828661	         -0.27285628	          0.00000000	         -0.02456071	         -0.00000028	          0.00000128	          0.00000003	          0.00000000	          0.00000000	         -0.00000000	          0.00000000	          1.30460295	          0.00000000	          0.00000000	          0.00000005	          0.00000000	
          0.98000000	        -96.67885176	        553.89101024	          3.65169862	         -0.26876287	          0.00000000	         -0.02545550	         -0.00000029	         -0.00000001	         -0.00000010	         -0.00000000	          0.00000000	         -0.00000000	          0.00000000	          1.26643304	          0.00000000	          0.00000000	          0.00000006	          0.00000000	
          0.98500000	       -102.57573246	        574.84684704	          8.49391386	         -0.26443122	          0.00000000	         -0.02625845	         -0.00000029	         -0.00000202	         -0.00000029	         -0.00000000	          0.00000000	         -0.00000000	          0.00000000	          1.22785207	          0.00000000	          0.00000000	          0.00000007	          0.00000000	
          0.99000000	       -107.35710217	        596.97537316	         12.79111086	         -0.26018986	          0.00000000	         -0.02695615	         -0.00000023	         -0.00000491	         -0.00000055	         -0.00000001	          0.00000000	         -0.00000000	          0.00000000	          1.19745898	          0.00000000	          0.00000000	          0.00000008	          0.00000000	
          0.99500000	       -110.59859752	        619.64894443	         16.44324501	         -0.25627599	          0.00000000	         -0.02754133	         -0.00000013	         -0.00000881	         -0.00000088	         -0.00000001	          0.00000000	         -0.00000000	          0.00000000	          1.17873881	          0.00000000	          0.00000000	          0.00000009	          0.00000000	
          1.00000000	       -112.03397439	        642.07883931	         19.44001011	         -0.25283680	          0.00000000	         -0.02801599	          0.00000006	         -0.00001379	         -0.00000129	         -0.00000002	          0.00000000	         -0.00000000	          0.00000000	          1.16898404	          0.00000000	          0.00000000	          0.00000009	          0.00000000	
          1.00500000	       -111.57079645	        663.33819746	         21.84066400	         -0.24993533	          0.00000000	         -0.02839361	          0.00000033	         -0.00001987	         -0.00000177	         -0.00000002	          0.00000000	         -0.00000000	          0.00000000	          1.16184027	          0.00000000	          0.00000000	          0.00000008	          0.00000000	
          1.01000000	       -109.29116986	        682.44392959	         23.73809493	         -0.24756231	          0.00000000	         -0.02869555	          0.00000073	         -0.00002690	         -0.00000230	         -0.00000003	          0.00000000	         -0.00000000	          0.00000000	          1.15165752	          0.00000000	          0.00000000	          0.00000005	          0.00000000	
          1.01500000	       -105.43110717	        698.47788823	         25.22900295	         -0.24565165	          0.00000000	         -0.02894465	          0.00000125	         -0.00003455	         -0.00000285	         -0.00000004	          0.00000000	         -0.00000000	          0.00000000	          1.13582993	          0.00000000	          0.00000000	          0.00000001	          0.00000000	
          1.02000000	       -100.33317766	        710.69123557	         26.40232119	         -0.24409698	          0.00000000	         -0.02916365	          0.00000191	         -0.00004220	         -0.00000335	         -0.00000004	          0.00000000	         -0.00000001	          0.00000000	          1.11457016	          0.00000000	          0.00000000	         -0.00000007	          0.00000000	
          1.02500000	        -94.38783668	        718.57909125	         27.34403333	         -0.24276830	          0.00000000	         -0.02937556	          0.00000271	         -0.00004894	         -0.00000372	         -0.00000005	          0.00000000	         -0.00000001	          0.00000000	          1.08921690	          0.00000000	          0.00000000	         -0.00000018	          0.00000000	
          1.03000000	        -87.98038843	        721.91275747	         28.14088808	         -0.24152754	          0.00000000	         -0.02960310	          0.00000362	         -0.00005341	         -0.00000383	         -0.00000005	          0.00000000	         -0.00000001	          0.00000000	          1.06090365	          0.00000000	          0.00000000	         -0.00000032	          0.00000000	
          1.03500000	        -81.44979847	        720.72424404	         28.87111635	         -0.24024109	          0.00000000	         -0.02986730	          0.00000459	         -0.00005379	         -0.00000353	         -0.00000004	          0.00000000	         -0.00000001	          0.00000000	          1.03048817	          0.00000000	          0.00000000	         -0.00000051	          0.00000000	
          1.04000000	        -75.06501747	        715.26304919	         29.59225372	         -0.23878957	          0.00000000	         -0.03018532	          0.00000553	         -0.00004775	         -0.00000263	         -0.00000003	          0.00000000	         -0.00000000	          0.00000000	          0.99989271	          0.00000000	          0.00000000	         -0.00000074	          0.00000000	
          1.04500000	        -69.01301058	        705.93525143	         30.33490400	         -0.23707445	          0.00000000	         -0.03056814	          0.00000633	         -0.00003245	         -0.00000091	         -0.00000001	          0.00000000	         -0.00000000	          0.00000000	          0.97220894	          0.00000000	          0.00000000	         -0.00000101	          0.00000000	
          1.05000000	        -63.39951622	        693.23678506	         31.10581442	         -0.23502213	          0.00000000	         -0.03102002	          0.00000678	         -0.00000458	          0.00000189	          0.00000003	          0.00000000	          0.00000000	          0.00000000	          0.95105955	          0.00000000	          0.00000000	         -0.00000131	          0.00000000	
          1.05500000	        -58.26043280	        677.69202934	         31.89539053	         -0.23258426	          0.00000000	         -0.03154041	          0.00000666	          0.00003944	          0.00000603	          0.00000009	          0.00000000	          0.00000001	          0.00000000	          0.93950293	          0.00000000	          0.00000000	         -0.00000161	          0.00000000	
          1.06000000	        -53.58426873	        659.81492157	         32.68159489	         -0.22973624	          0.00000000	         -0.03212536	          0.00000564	          0.00010323	          0.00001174	          0.00000016	          0.00000000	          0.00000002	          0.00000000	          0.93955907	          0.00000000	          0.00000000	         -0.00000188	          0.00000000	
